<svg version="1.1" id="Layer_1" xmlns="http://www.w3.org/2000/svg" xmlns:xlink="http://www.w3.org/1999/xlink" x="0px" y="0px"
	 width="100%" viewBox="0 0 1024 1024" enable-background="new 0 0 1024 1024" xml:space="preserve">
<path fill="#000000" opacity="1.000000" stroke="none" 
	d="
M373.335999,431.969666 
	C373.343689,443.722839 373.343689,443.716736 384.774872,443.709747 
	C397.772522,443.701813 410.772766,443.562134 423.766296,443.793091 
	C427.667480,443.862396 429.390015,442.393219 430.473846,438.819977 
	C435.157471,423.379303 440.047119,408.001068 444.867828,392.602051 
	C445.116425,391.807892 445.365967,391.006195 445.709869,390.251190 
	C446.638153,388.213226 446.897461,385.470917 450.105347,385.646179 
	C453.499878,385.831604 454.424133,388.484863 455.066101,391.090454 
	C456.536499,397.058411 457.784973,403.080688 459.164673,409.071442 
	C464.236633,431.094391 469.318604,453.115021 474.431610,475.128479 
	C474.644257,476.043976 475.205750,476.878448 476.047852,478.719452 
	C478.477600,472.815125 478.596039,467.332001 479.570892,462.120972 
	C482.716736,445.304688 485.483551,428.417511 488.408630,411.559814 
	C488.832916,409.114624 488.929199,406.110840 492.253296,406.012390 
	C495.671844,405.911102 496.329498,409.032410 497.113037,411.518188 
	C498.912354,417.226410 500.552094,422.985840 502.189209,428.743652 
	C502.636993,430.318604 502.890808,431.937225 504.999481,433.671783 
	C506.930389,427.508270 508.779785,421.905426 510.435303,416.245880 
	C512.582703,408.904816 514.463623,401.484406 516.694153,394.169800 
	C517.508728,391.498444 517.503967,387.482025 521.549927,387.606628 
	C526.000122,387.743713 525.470642,392.080811 526.077881,394.890472 
	C529.972229,412.908936 533.606567,430.983490 537.420837,449.019623 
	C537.813110,450.874573 537.864380,453.033752 540.292603,454.750061 
	C548.980408,448.123901 557.997620,441.583649 569.052612,438.872742 
	C580.454834,436.076721 591.104370,438.367004 601.806946,444.289062 
	C602.748291,439.275757 603.808716,434.987061 604.271729,430.634796 
	C604.534485,428.165436 601.890442,427.695312 600.132446,426.942719 
	C593.384705,424.054138 586.693115,421.133453 581.021057,416.278717 
	C567.512878,404.716766 561.615295,389.680664 560.688354,372.323883 
	C560.569031,370.089417 561.086426,367.983337 562.373596,366.169678 
	C563.626770,364.403809 565.513550,363.705902 567.630798,363.901093 
	C570.278198,364.145142 571.809998,365.788208 572.482056,368.265167 
	C574.004822,373.877716 575.354309,379.541046 577.020142,385.110229 
	C581.826477,401.178650 593.032898,409.849335 609.237305,412.619568 
	C611.930725,413.080017 613.991028,412.449921 615.628662,409.956177 
	C618.733093,405.228760 622.130432,400.693665 625.404663,396.077698 
	C625.597351,395.806091 625.809204,395.541687 625.958679,395.246857 
	C627.766602,391.681854 623.875366,380.786865 619.197937,376.295929 
	C615.112000,372.372925 611.088501,371.945953 605.855469,375.143372 
	C603.871887,376.355316 602.177368,376.577759 600.451721,374.927673 
	C598.762695,373.312561 598.782288,371.454681 599.668396,369.429901 
	C601.192017,365.948486 606.955872,363.362274 611.648560,364.038147 
	C623.047607,365.679962 628.941711,373.157166 632.040588,383.440918 
	C632.678894,385.559174 633.269287,387.556091 635.139893,389.393463 
	C640.733643,386.388947 648.152649,387.768951 652.915833,381.995941 
	C654.070129,380.596985 656.116211,379.495392 658.327271,380.790649 
	C660.675964,382.166504 660.314209,384.455658 660.315369,386.571014 
	C660.336243,424.230957 660.330383,461.890900 660.330322,499.550842 
	C660.330322,502.883575 660.344177,506.216370 660.328979,509.549042 
	C660.296814,516.614807 658.713440,518.252258 651.655823,517.216736 
	C638.192078,515.241333 626.560486,509.572205 617.672058,498.992523 
	C611.657288,491.833282 611.658691,491.668976 603.247620,495.527649 
	C594.756531,499.423096 586.204224,503.260437 582.171448,512.775024 
	C579.288635,519.576416 579.794495,520.686401 587.083801,520.703369 
	C608.079834,520.752075 629.075989,520.737366 650.072144,520.751160 
	C657.522522,520.756042 661.169373,524.049194 661.261353,531.585754 
	C661.434265,545.747681 661.506287,559.916931 661.243225,574.076111 
	C661.048828,584.539978 651.058777,592.990845 639.331055,593.004822 
	C599.338745,593.052246 559.346375,593.041138 519.354065,593.053772 
	C475.196045,593.067810 431.037994,593.086426 386.879974,593.096741 
	C371.414581,593.100342 362.676178,584.403381 362.676971,569.014587 
	C362.680542,499.193726 362.673065,429.372894 362.707733,359.552032 
	C362.714294,346.330261 368.968933,338.018463 381.242584,334.412140 
	C383.375427,333.785492 385.503510,333.726837 387.665955,333.726685 
	C470.817780,333.720551 553.969604,333.708496 637.121399,333.725311 
	C650.898804,333.728119 661.114624,343.875397 661.303772,357.657562 
	C661.367798,362.322266 661.309143,366.988953 661.277832,371.654541 
	C661.261353,374.111450 660.526367,376.287781 658.358276,377.674377 
	C654.969299,379.841705 651.038940,377.989136 650.819458,373.940125 
	C650.576294,369.453583 650.782104,364.944366 650.718567,360.446075 
	C650.579224,350.586731 644.602417,344.368622 634.881042,344.363251 
	C553.228943,344.318085 471.576843,344.312836 389.924805,344.366974 
	C379.683472,344.373749 373.389374,350.784424 373.360474,360.992188 
	C373.294006,384.486694 373.336823,407.981506 373.335999,431.969666 
M506.090271,455.954498 
	C501.846832,457.141815 500.593994,454.375244 499.410126,451.145386 
	C497.525879,446.004822 497.170502,440.273163 493.297302,434.278870 
	C490.814758,449.795135 488.559570,463.878662 486.308624,477.962860 
	C484.946075,486.488403 483.619904,495.019897 482.214325,503.538300 
	C481.744293,506.386871 479.765961,507.868805 477.048157,508.151764 
	C474.394043,508.428101 473.243744,506.492645 472.469482,504.349701 
	C471.904480,502.785980 471.352600,501.203522 470.978394,499.586914 
	C465.504669,475.937408 460.091675,452.273804 454.589752,428.630859 
	C453.278046,422.994171 451.694000,417.420807 450.135498,411.435394 
	C447.654938,413.178955 447.574127,414.927277 447.082184,416.475067 
	C443.855743,426.626801 440.426025,436.720184 437.488678,446.954834 
	C436.101166,451.789368 433.630707,453.467529 428.587952,453.380615 
	C411.926636,453.093628 395.256653,453.351074 378.591278,453.227142 
	C374.806396,453.199005 373.235291,454.349243 373.266174,458.368896 
	C373.413391,477.534027 373.395721,496.701416 373.265686,515.866821 
	C373.240906,519.518188 374.388702,520.797180 378.143250,520.791321 
	C438.808594,520.696472 499.474152,520.694031 560.139526,520.780457 
	C564.239624,520.786316 566.293396,519.480286 566.692322,515.254395 
	C567.830078,503.199432 574.472839,494.613525 584.417297,488.359863 
	C589.792114,484.979828 595.646057,482.554840 601.693115,480.590088 
	C603.524719,479.994965 606.596985,479.406677 606.010132,477.237274 
	C604.476135,471.566772 605.152039,464.424316 600.324219,460.626038 
	C588.040710,450.962067 573.611023,448.617035 559.467041,457.441437 
	C553.774109,460.993225 549.039307,465.687347 544.098022,470.164185 
	C538.192322,475.514679 533.283203,473.745758 531.663025,466.018097 
	C529.139832,453.983307 526.581116,441.955902 524.003174,429.932709 
	C523.147461,425.941650 522.789062,421.798431 520.565063,417.407990 
	C517.827209,420.793701 517.549133,424.523682 516.262573,427.805939 
	C512.692261,436.913818 511.625427,446.874786 506.090271,455.954498 
M393.508606,531.333008 
	C389.675690,531.333923 385.840149,531.244751 382.010406,531.355591 
	C375.272156,531.550598 373.390259,533.452026 373.352081,540.111450 
	C373.299561,549.276550 373.291260,558.442566 373.354767,567.607483 
	C373.419556,576.954834 378.039948,581.410156 387.447418,582.100159 
	C399.767365,583.003784 412.088989,582.494690 424.404846,582.522461 
	C479.726624,582.647156 535.048828,582.592163 590.370850,582.599487 
	C605.699890,582.601501 621.029358,582.660156 636.357910,582.569153 
	C646.485474,582.508972 650.667114,578.262817 650.705139,568.247131 
	C650.741821,558.582031 650.790161,548.915588 650.663818,539.251892 
	C650.597229,534.156006 647.984985,531.616028 642.970093,531.363586 
	C640.808777,531.254822 638.638306,531.318298 636.471985,531.318420 
	C555.816589,531.322693 475.161194,531.328735 393.508606,531.333008 
z"/>
<path fill="#000000" opacity="1.000000" stroke="none" 
	d="
M436.685516,547.063660 
	C436.695801,544.742310 436.750427,542.909424 436.706360,541.078918 
	C436.634064,538.075378 438.281677,536.959656 441.049103,536.856018 
	C443.973419,536.746399 445.325012,538.029053 445.304199,540.999634 
	C445.244629,549.492493 445.403473,557.988647 445.221008,566.478088 
	C445.116943,571.320496 441.481903,574.926758 436.655151,575.216064 
	C433.004089,575.434937 429.327301,575.374756 425.667419,575.262207 
	C419.897552,575.084717 416.023834,571.345276 415.781036,565.521790 
	C415.573090,560.533875 415.609161,555.528870 415.736115,550.536499 
	C415.814789,547.443726 414.804413,545.873413 411.472382,545.957092 
	C405.982239,546.094971 400.486542,546.030090 394.993256,546.020447 
	C391.675964,546.014648 390.207489,547.539551 390.276947,550.938660 
	C390.409607,557.430908 390.231079,563.929382 390.355164,570.421997 
	C390.417450,573.680908 389.424500,575.344177 385.825806,575.324402 
	C382.298340,575.305054 380.612274,574.156494 380.689911,570.404541 
	C380.841522,563.080139 380.629150,555.748535 380.763062,548.423462 
	C380.902924,540.773254 384.449158,536.982727 392.139954,536.795105 
	C401.625366,536.563660 411.122375,536.831482 420.614380,536.833252 
	C423.930267,536.833862 425.414551,538.268677 425.346954,541.693481 
	C425.215546,548.352234 425.447083,555.018738 425.280182,561.675842 
	C425.191254,565.221558 426.280151,566.875977 430.101990,566.769653 
	C433.815674,566.666321 436.815643,566.364197 436.692169,561.541748 
	C436.572845,556.881836 436.678619,552.216309 436.685516,547.063660 
z"/>
<path fill="#000000" opacity="1.000000" stroke="none" 
	d="
M610.390869,540.858398 
	C613.346924,546.271240 613.296021,551.039551 608.748901,555.391052 
	C609.647217,557.691589 612.059265,559.009827 612.333862,561.716125 
	C613.247253,570.718628 609.282227,575.635132 600.558899,575.435120 
	C584.354431,575.063538 583.670898,574.711304 583.669983,558.611938 
	C583.669739,554.452637 583.679993,550.293396 583.683899,546.134094 
	C583.688171,541.559326 585.707764,538.133667 590.301941,537.488708 
	C597.128662,536.530334 604.226379,535.107056 610.390869,540.858398 
M602.656921,565.384827 
	C603.319641,561.070129 601.307007,559.680115 595.624573,560.311401 
	C593.742676,560.520508 592.486267,561.089783 592.364258,563.175293 
	C592.255005,565.041626 592.963623,566.348022 594.771545,566.988770 
	C597.437439,567.933716 599.924683,567.628296 602.656921,565.384827 
M596.686157,551.710327 
	C599.008362,551.484131 602.107544,552.391602 602.516907,548.843994 
	C602.798706,546.402466 600.747253,545.452881 598.627258,545.372070 
	C596.454285,545.289429 593.726257,544.433716 592.762207,547.459351 
	C591.934631,550.056335 593.163513,551.540466 596.686157,551.710327 
z"/>
<path fill="#000000" opacity="1.000000" stroke="none" 
	d="
M560.135376,537.647766 
	C565.627014,536.237244 570.811401,536.839478 575.953186,536.799133 
	C578.726074,536.777344 580.224182,538.320740 580.215454,541.199890 
	C580.185059,551.190002 580.174805,561.180176 580.156433,571.170288 
	C580.150391,574.446594 578.314819,575.394531 575.299011,575.309998 
	C572.167542,575.222229 570.708679,573.845947 570.783875,570.721436 
	C570.864075,567.391602 571.524231,563.998230 566.068604,564.132629 
	C561.813110,564.237366 559.741455,565.427307 560.312378,569.863770 
	C560.835876,573.931458 559.156555,575.630554 554.970764,575.322815 
	C552.419495,575.135193 551.846375,574.207825 551.503113,571.713013 
	C550.354797,563.366882 551.687378,555.095337 551.763672,546.795776 
	C551.810303,541.723206 555.311401,539.214905 560.135376,537.647766 
M566.709656,545.321716 
	C565.738586,545.475769 564.681824,545.435425 563.812012,545.819031 
	C560.759949,547.165100 559.972717,549.766174 560.502869,552.794556 
	C561.183533,556.682373 564.382324,555.538635 566.843262,555.719360 
	C569.059570,555.882019 571.084106,555.290894 570.739319,552.592224 
	C570.399658,549.933044 572.781860,545.840149 566.709656,545.321716 
z"/>
<path fill="#000000" opacity="1.000000" stroke="none" 
	d="
M641.251465,573.571045 
	C634.666443,576.494324 628.145447,575.418762 621.755615,574.836182 
	C619.115906,574.595520 616.873779,572.397461 616.083618,569.716919 
	C615.458130,567.595398 614.669800,564.652039 617.156067,563.393066 
	C619.442505,562.235291 622.441284,561.929932 624.355652,564.614197 
	C626.688782,567.885620 629.742371,568.189209 633.183472,567.047729 
	C634.684570,566.549805 635.832275,565.530151 635.680481,563.740906 
	C635.548096,562.180542 634.434082,561.419861 633.029175,561.177612 
	C630.909790,560.812073 628.773071,560.529785 626.634521,560.295410 
	C616.961304,559.235229 612.163025,550.751465 616.468872,541.990662 
	C618.709656,537.431580 623.184998,536.790771 627.585632,536.842224 
	C633.219971,536.907959 639.614929,535.051086 643.437195,541.274841 
	C644.835815,543.552246 645.599609,547.051636 643.307251,548.570862 
	C641.138245,550.008362 637.766113,550.495300 635.450073,547.132751 
	C633.268738,543.965637 629.775879,545.119995 626.735596,545.653320 
	C625.575317,545.856873 624.884338,547.090698 624.911438,548.366272 
	C624.948547,550.115112 626.091858,551.187622 627.648865,551.484619 
	C630.091431,551.950439 632.585327,552.171814 635.065918,552.407898 
	C639.787842,552.857056 643.624573,554.866394 644.758911,559.641296 
	C645.921204,564.533508 646.324707,569.632568 641.251465,573.571045 
z"/>
<path fill="#000000" opacity="1.000000" stroke="none" 
	d="
M474.190521,554.629150 
	C479.243835,559.371033 478.747375,564.779480 476.607422,570.084717 
	C474.696198,574.823059 470.365387,575.564209 465.743500,575.345764 
	C462.750671,575.204224 459.736176,575.436584 456.751801,575.220032 
	C452.346130,574.900208 448.855530,571.625427 448.739441,567.822327 
	C448.686066,566.074280 448.153931,563.768127 450.533234,563.181580 
	C452.851715,562.610168 455.617188,561.729553 457.190582,564.658386 
	C459.416107,568.801147 462.944061,567.862305 466.349518,567.081177 
	C467.672302,566.777771 468.595215,565.665283 468.579285,564.103271 
	C468.563568,562.563110 467.727905,561.696838 466.328491,561.176941 
	C464.419159,560.467529 462.452728,560.363708 460.444916,560.266663 
	C451.859863,559.851807 448.460999,555.990479 448.679169,547.042297 
	C448.846924,540.163391 452.639252,536.825500 460.585419,536.776733 
	C463.898071,536.756409 467.248322,536.386475 470.516815,537.373779 
	C473.346619,538.228699 475.897980,539.580139 476.849518,542.511536 
	C477.542389,544.645874 478.364899,547.509766 475.802704,548.757812 
	C473.698700,549.782593 470.611908,550.343933 468.946136,547.888062 
	C466.923157,544.905640 464.219116,545.255249 461.407410,545.359375 
	C459.541840,545.428345 458.046936,546.235352 457.907562,548.209656 
	C457.749695,550.446350 459.250977,551.400269 461.315277,551.711121 
	C465.551666,552.349182 470.017944,551.938354 474.190521,554.629150 
z"/>
<path fill="#000000" opacity="1.000000" stroke="none" 
	d="
M490.309387,566.255005 
	C490.282043,568.371338 490.259338,570.036011 490.230652,571.700623 
	C490.181030,574.579041 488.394165,575.292297 485.903900,575.265015 
	C483.464935,575.238342 480.925934,575.260925 480.912292,571.912476 
	C480.869568,561.428284 480.871948,550.942566 481.019348,540.459717 
	C481.069397,536.899902 483.966705,537.065430 486.495758,536.890015 
	C489.356812,536.691467 490.365784,538.119324 490.284485,540.786133 
	C490.213440,543.114807 490.218109,545.450745 490.312866,547.778442 
	C490.469177,551.618958 492.477966,552.812744 495.794983,550.891052 
	C499.084869,548.985107 500.570374,545.849792 500.667969,542.138916 
	C500.755157,538.822876 501.737000,536.630798 505.591705,536.860168 
	C509.580475,537.097412 510.564209,539.459167 510.261261,542.962646 
	C509.940552,546.671387 509.353058,550.359680 506.605530,553.056519 
	C504.269135,555.349854 504.238739,557.114868 506.697449,559.220581 
	C510.946991,562.860046 510.503967,567.836731 510.116730,572.652832 
	C509.860687,575.837341 507.145905,575.161377 505.081879,575.260315 
	C502.640320,575.377380 500.714447,574.714844 500.770599,571.760620 
	C500.839874,568.116821 500.252319,564.743958 496.996399,562.495483 
	C493.179901,559.859924 490.757233,561.079956 490.309387,566.255005 
z"/>
<path fill="#000000" opacity="1.000000" stroke="none" 
	d="
M546.170166,573.362427 
	C540.361511,576.555725 534.532593,575.703918 528.933655,574.461609 
	C525.690674,573.742004 523.816345,570.720520 523.774536,567.222168 
	C523.670959,558.562134 523.756653,549.899963 523.716064,541.238953 
	C523.701355,538.103516 525.117065,536.680481 528.287598,536.782166 
	C531.386963,536.881531 533.351379,537.809204 533.290039,541.424683 
	C533.174194,548.251709 533.284912,555.082520 533.289124,561.911743 
	C533.290588,564.364868 533.337036,566.694031 536.758545,566.767273 
	C539.916443,566.834778 540.811096,565.014771 540.728455,562.308899 
	C540.624756,558.914795 542.182312,557.591003 545.600647,557.680420 
	C549.331604,557.778076 549.320435,560.174133 549.387390,562.783752 
	C549.483337,566.525452 549.113892,570.115723 546.170166,573.362427 
z"/>
<path fill="#000000" opacity="1.000000" stroke="none" 
	d="
M410.323395,558.074097 
	C410.314880,562.703674 410.251740,566.844604 410.313354,570.983765 
	C410.361053,574.188904 408.818970,575.325867 405.716095,575.323608 
	C402.664154,575.321411 401.625824,573.954956 401.663269,571.090149 
	C401.741119,565.129333 401.780975,559.164185 401.633575,553.205811 
	C401.551880,549.903625 402.816559,548.149048 406.179749,548.213501 
	C409.364746,548.274536 410.484833,550.135315 410.316162,553.114197 
	C410.232086,554.599487 410.315063,556.094238 410.323395,558.074097 
z"/>
</svg>